<?xml version="1.0" encoding="UTF-8" standalone="no"?>
<svg
   width="24"
   height="24"
   viewBox="0 0 24 24"
   fill="none"
   stroke="currentColor"
   stroke-width="2"
   stroke-linecap="round"
   stroke-linejoin="round"
   class="feather feather-maximize"
   version="1.1"
   id="svg1"
   sodipodi:docname="maximize.svg"
   inkscape:version="1.4 (86a8ad7, 2024-10-11)"
   xmlns:inkscape="http://www.inkscape.org/namespaces/inkscape"
   xmlns:sodipodi="http://sodipodi.sourceforge.net/DTD/sodipodi-0.dtd"
   xmlns="http://www.w3.org/2000/svg"
   xmlns:svg="http://www.w3.org/2000/svg">
  <defs
     id="defs1" />
  <sodipodi:namedview
     id="namedview1"
     pagecolor="#ffffff"
     bordercolor="#000000"
     borderopacity="0.25"
     inkscape:showpageshadow="2"
     inkscape:pageopacity="0.0"
     inkscape:pagecheckerboard="0"
     inkscape:deskcolor="#d1d1d1"
     inkscape:zoom="33.958333"
     inkscape:cx="12"
     inkscape:cy="12"
     inkscape:window-width="1920"
     inkscape:window-height="1017"
     inkscape:window-x="-8"
     inkscape:window-y="-8"
     inkscape:window-maximized="1"
     inkscape:current-layer="svg1" />
  <path
     d="M8 3H5a2 2 0 0 0-2 2v3m18 0V5a2 2 0 0 0-2-2h-3m0 18h3a2 2 0 0 0 2-2v-3M3 16v3a2 2 0 0 0 2 2h3"
     id="path1" />
  <path
     style="fill:#ffffff;stroke:#000000;stroke-width:0.0588957;stroke-opacity:0"
     d="M 2.7745031,8.9641743 C 2.5056474,8.9008665 2.2720302,8.7177497 2.1330259,8.4613643 L 2.0319018,8.2748466 2.0229353,6.5374233 C 2.0167856,5.3457968 2.024536,4.7262125 2.047607,4.5651138 2.2325388,3.2737869 3.2737869,2.2325388 4.5651138,2.047607 4.7262125,2.024536 5.3457968,2.0167856 6.5374233,2.0229353 l 1.7374233,0.00897 0.1865177,0.1011241 C 9.1826862,2.5241043 9.1516385,3.5384797 8.407362,3.8973629 L 8.2453988,3.9754601 6.4932515,3.990184 4.7411043,4.004908 4.5754737,4.0862478 C 4.3801444,4.1821725 4.1590607,4.4074271 4.0690829,4.6021921 4.0059976,4.7387456 4.004658,4.7708548 3.990184,6.4932515 L 3.9754601,8.2453988 3.895618,8.4079683 C 3.7563721,8.6914913 3.5356563,8.8743778 3.2404388,8.950853 3.0475548,9.000819 2.9428396,9.003813 2.7745031,8.9641743 Z"
     id="path2" />
  <path
     style="fill:#ffffff;stroke:#000000;stroke-width:0.0588957;stroke-opacity:0"
     d="M 4.4711893,21.939652 C 3.3145623,21.727405 2.4084292,20.874749 2.0958666,19.704515 2.033398,19.470632 2.0319018,19.421293 2.0319018,17.595092 v -1.869939 l 0.1011241,-0.186517 c 0.221475,-0.408498 0.6562825,-0.604419 1.0934982,-0.492722 0.3083819,0.07878 0.5273483,0.257505 0.6690939,0.546118 l 0.079842,0.162569 0.014724,1.752147 c 0.014474,1.722397 0.015814,1.754506 0.078899,1.89106 0.089978,0.194765 0.3110615,0.420019 0.5063908,0.515944 l 0.1656306,0.08134 1.7521472,0.01472 1.7521473,0.01472 0.1619632,0.0781 c 0.2862257,0.138015 0.4671672,0.359424 0.5460368,0.668155 0.1117419,0.437409 -0.084869,0.87543 -0.4920345,1.096182 l -0.1865177,0.101124 -1.796319,0.0051 c -1.3762675,0.0039 -1.8456638,-0.0039 -2.0073383,-0.03359 z"
     id="path3" />
  <path
     style="fill:#ffffff;stroke:#000000;stroke-width:0.0588957;stroke-opacity:0"
     d="m 15.705841,21.941781 c -0.514579,-0.183812 -0.787557,-0.668696 -0.65924,-1.170989 0.07887,-0.308731 0.259811,-0.53014 0.546037,-0.668155 l 0.161963,-0.0781 1.752147,-0.01472 1.752148,-0.01472 0.16563,-0.08134 c 0.19533,-0.09592 0.416413,-0.321179 0.506391,-0.515944 0.06308,-0.136554 0.06442,-0.168663 0.0789,-1.89106 l 0.01472,-1.752147 0.07984,-0.162569 c 0.141746,-0.288613 0.360712,-0.467335 0.669094,-0.546118 0.437215,-0.111697 0.872023,0.08422 1.093498,0.492722 l 0.101124,0.186517 0.009,1.737424 c 0.0096,1.856339 6.8e-4,2.020091 -0.132804,2.443475 -0.278689,0.883947 -0.998682,1.6198 -1.878617,1.919999 -0.434435,0.148212 -0.569497,0.156869 -2.425943,0.155479 -1.343106,-0.001 -1.750096,-0.0098 -1.83386,-0.03975 z"
     id="path4" />
  <path
     style="fill:#ffffff;stroke:#000000;stroke-width:0.0588957;stroke-opacity:0"
     d="M 20.746012,8.9508127 C 20.46117,8.8714533 20.240193,8.6844984 20.104382,8.4079683 L 20.02454,8.2453988 20.009816,6.4932515 C 19.995342,4.7708548 19.994002,4.7387456 19.930917,4.6021921 19.840939,4.4074271 19.619856,4.1821725 19.424526,4.0862478 L 19.258896,4.004908 17.506748,3.990184 15.754601,3.9754601 15.592638,3.8973629 C 15.306412,3.7593476 15.125471,3.5379394 15.046601,3.229208 14.934859,2.791799 15.13147,2.3537785 15.538636,2.1330259 l 0.186517,-0.1011241 1.737424,-0.00897 c 1.856339,-0.00958 2.020091,-6.802e-4 2.443475,0.1328037 0.906633,0.2858418 1.652367,1.0315761 1.938209,1.9382091 0.133484,0.4233844 0.142384,0.5871361 0.132804,2.4434752 l -0.009,1.7374233 -0.101124,0.1865177 c -0.222423,0.4102472 -0.683165,0.611422 -1.120962,0.4894484 z"
     id="path5" />
</svg>
