<?xml version="1.0" encoding="UTF-8" standalone="no"?>
<svg
   width="24"
   height="24"
   viewBox="0 0 24 24"
   fill="none"
   stroke="currentColor"
   stroke-width="2"
   stroke-linecap="round"
   stroke-linejoin="round"
   class="feather feather-x"
   version="1.1"
   id="svg2"
   sodipodi:docname="x.svg"
   inkscape:version="1.4 (86a8ad7, 2024-10-11)"
   xmlns:inkscape="http://www.inkscape.org/namespaces/inkscape"
   xmlns:sodipodi="http://sodipodi.sourceforge.net/DTD/sodipodi-0.dtd"
   xmlns="http://www.w3.org/2000/svg"
   xmlns:svg="http://www.w3.org/2000/svg">
  <defs
     id="defs2" />
  <sodipodi:namedview
     id="namedview2"
     pagecolor="#ffffff"
     bordercolor="#000000"
     borderopacity="0.25"
     inkscape:showpageshadow="2"
     inkscape:pageopacity="0.0"
     inkscape:pagecheckerboard="0"
     inkscape:deskcolor="#d1d1d1"
     inkscape:zoom="33.958333"
     inkscape:cx="12"
     inkscape:cy="12"
     inkscape:window-width="1920"
     inkscape:window-height="1017"
     inkscape:window-x="-8"
     inkscape:window-y="-8"
     inkscape:window-maximized="1"
     inkscape:current-layer="svg2" />
  <line
     x1="18"
     y1="6"
     x2="6"
     y2="18"
     id="line1" />
  <line
     x1="6"
     y1="6"
     x2="18"
     y2="18"
     id="line2"
     style="fill:#ffffff;stroke:#000000;stroke-opacity:1" />
  <path
     style="fill:#ffffff;stroke:#000000;stroke-width:0.0588957;stroke-opacity:0"
     d="M 5.7276074,18.951604 C 5.4802738,18.876095 5.2292836,18.660883 5.1071976,18.419632 5.0064615,18.220569 4.9944309,17.872183 5.0802497,17.639264 5.1430934,17.468701 5.2398943,17.367903 7.8729189,14.731288 L 10.600488,12 7.8729189,9.2687117 C 5.2398943,6.6320967 5.1430934,6.5312989 5.0802497,6.3607362 4.9944309,6.1278171 5.0064615,5.7794307 5.1071976,5.5803681 5.1983454,5.4002529 5.3880124,5.20831 5.5656442,5.1164204 5.7788615,5.0061222 6.1177106,4.9907072 6.3607362,5.0802497 6.5312989,5.1430934 6.6320967,5.2398943 9.2687117,7.8729189 L 12,10.600488 14.731288,7.8729189 c 2.636615,-2.6330246 2.737413,-2.7298255 2.907976,-2.7926692 0.243025,-0.089543 0.581874,-0.074128 0.795092,0.036171 0.177632,0.09189 0.367298,0.2838325 0.458446,0.4639477 0.100736,0.1990626 0.112767,0.547449 0.02695,0.7803681 -0.06284,0.1705627 -0.159644,0.2713605 -2.792669,2.9079755 L 13.399512,12 l 2.727569,2.731288 c 2.633025,2.636615 2.729826,2.737413 2.792669,2.907976 0.08954,0.243025 0.07413,0.581874 -0.03617,0.795092 -0.09189,0.177632 -0.283833,0.367298 -0.463948,0.458446 -0.199063,0.100736 -0.547449,0.112767 -0.780368,0.02695 -0.170563,-0.06284 -0.271361,-0.159644 -2.907976,-2.792669 L 12,13.399512 9.2687117,16.127081 c -2.606671,2.603122 -2.7390644,2.730409 -2.9017182,2.789815 -0.1748156,0.06385 -0.4882127,0.08086 -0.6393861,0.03471 z"
     id="path3" />
</svg>
